<svg width="128" height="128" viewBox="0 0 128 128" fill="none" xmlns="http://www.w3.org/2000/svg">
<path d="M34.5048 61.4047C34.5048 58.8098 34.9876 56.5317 35.9531 54.5705C36.9488 52.6092 38.2915 51.1006 39.9812 50.0445C41.6709 48.9884 43.5568 48.4604 45.6387 48.4604C47.4189 48.4604 48.9728 48.8225 50.3004 49.5467C51.6582 50.2708 52.6992 51.2213 53.4234 52.398V48.8225H61.1628V74.0774H53.4234V70.5019C52.669 71.6786 51.613 72.6291 50.2552 73.3532C48.9276 74.0774 47.3737 74.4395 45.5934 74.4395C43.5417 74.4395 41.6709 73.9114 39.9812 72.8554C38.2915 71.7691 36.9488 70.2454 35.9531 68.2842C34.9876 66.2927 34.5048 63.9996 34.5048 61.4047ZM53.4234 61.4499C53.4234 59.5189 52.8802 57.9951 51.794 56.8787C50.738 55.7623 49.4405 55.2041 47.9017 55.2041C46.3629 55.2041 45.0503 55.7623 43.9641 56.8787C42.908 57.965 42.38 59.4736 42.38 61.4047C42.38 63.3358 42.908 64.8746 43.9641 66.0212C45.0503 67.1376 46.3629 67.6958 47.9017 67.6958C49.4405 67.6958 50.738 67.1376 51.794 66.0212C52.8802 64.9048 53.4234 63.381 53.4234 61.4499ZM74.5013 52.398C75.2556 51.2213 76.2966 50.2708 77.6242 49.5467C78.9518 48.8225 80.5057 48.4604 82.2859 48.4604C84.3679 48.4604 86.2537 48.9884 87.9434 50.0445C89.6331 51.1006 90.9607 52.6092 91.9263 54.5705C92.922 56.5317 93.4198 58.8098 93.4198 61.4047C93.4198 63.9996 92.922 66.2927 91.9263 68.2842C90.9607 70.2454 89.6331 71.7691 87.9434 72.8554C86.2537 73.9114 84.3679 74.4395 82.2859 74.4395C80.5359 74.4395 78.982 74.0774 77.6242 73.3532C76.2966 72.6291 75.2556 71.6937 74.5013 70.5471V86.1165H66.7619V48.8225H74.5013V52.398ZM85.5446 61.4047C85.5446 59.4736 85.0015 57.965 83.9153 56.8787C82.8592 55.7623 81.5467 55.2041 79.9777 55.2041C78.4389 55.2041 77.1263 55.7623 76.0401 56.8787C74.9841 57.9951 74.456 59.5189 74.456 61.4499C74.456 63.381 74.9841 64.9048 76.0401 66.0212C77.1263 67.1376 78.4389 67.6958 79.9777 67.6958C81.5165 67.6958 82.8291 67.1376 83.9153 66.0212C85.0015 64.8746 85.5446 63.3358 85.5446 61.4047Z" fill="black" fill-opacity="0.8"/>
</svg>
